<svg xmlns="http://www.w3.org/2000/svg" viewBox="0 0 64 64">
  <defs>
    <linearGradient id="grad" x1="0%" y1="0%" x2="100%" y2="100%">
      <stop offset="0%" stop-color="#5c6cff" />
      <stop offset="100%" stop-color="#21d4fd" />
    </linearGradient>
  </defs>
  <rect width="64" height="64" rx="14" fill="url(#grad)" />
  <path
    d="M20 44V20h6.8c3.6 0 6.2 2.2 6.2 5.8 0 2.2-1.2 4-3.2 4.9 2.4.8 3.9 2.9 3.9 5.5 0 3.9-2.8 6.8-7.2 6.8Zm4.2-14.3h2.2c1.8 0 3-1.1 3-2.7s-1.2-2.7-3-2.7h-2.2Zm0 9.9h2.6c2.1 0 3.4-1.2 3.4-3.1s-1.3-3.1-3.4-3.1h-2.6ZM36.9 44l7.1-24h4.1l-7.1 24Z"
    fill="#fff"
  />
</svg>
